<svg xmlns="http://www.w3.org/2000/svg" width="229.016" height="231.506" viewBox="0 0 229.016 231.506"><defs><style>.a{fill:#0d4f8c;}</style></defs><path class="a" d="M333.2,184.4a5.513,5.513,0,1,1-5.513-5.513A5.515,5.515,0,0,1,333.2,184.4Z" transform="translate(-322.178 -61.891)"/><path class="a" d="M342.4,184.4a5.513,5.513,0,1,1-5.513-5.513A5.515,5.515,0,0,1,342.4,184.4Z" transform="translate(-296.88 -61.891)"/><path class="a" d="M351.6,184.4a5.513,5.513,0,1,1-5.513-5.513A5.515,5.515,0,0,1,351.6,184.4Z" transform="translate(-271.583 -61.891)"/><path class="a" d="M360.8,184.4a5.513,5.513,0,1,1-5.513-5.513A5.515,5.515,0,0,1,360.8,184.4Z" transform="translate(-246.286 -61.891)"/><path class="a" d="M381.816,194.914a16.023,16.023,0,1,1-16.023-16.023A16.028,16.028,0,0,1,381.816,194.914Z" transform="translate(-251.773 -79.424)"/><path class="a" d="M333.2,193.6a5.513,5.513,0,1,1-5.513-5.513A5.515,5.515,0,0,1,333.2,193.6Z" transform="translate(-322.178 -36.594)"/><path class="a" d="M342.4,193.6a5.513,5.513,0,1,1-5.513-5.513A5.515,5.515,0,0,1,342.4,193.6Z" transform="translate(-296.88 -36.594)"/><path class="a" d="M351.6,193.6a5.513,5.513,0,1,1-5.513-5.513A5.515,5.515,0,0,1,351.6,193.6Z" transform="translate(-271.583 -36.594)"/><path class="a" d="M360.8,193.6a5.513,5.513,0,1,1-5.513-5.513A5.515,5.515,0,0,1,360.8,193.6Z" transform="translate(-246.286 -36.594)"/><path class="a" d="M333.2,202.8a5.513,5.513,0,1,1-5.513-5.513A5.512,5.512,0,0,1,333.2,202.8Z" transform="translate(-322.178 -11.297)"/><path class="a" d="M342.4,202.8a5.513,5.513,0,1,1-5.513-5.513A5.512,5.512,0,0,1,342.4,202.8Z" transform="translate(-296.88 -11.297)"/><path class="a" d="M351.6,202.8a5.513,5.513,0,1,1-5.513-5.513A5.512,5.512,0,0,1,351.6,202.8Z" transform="translate(-271.583 -11.297)"/><path class="a" d="M360.8,202.8a5.513,5.513,0,1,1-5.513-5.513A5.512,5.512,0,0,1,360.8,202.8Z" transform="translate(-246.286 -11.297)"/><path class="a" d="M333.2,212a5.513,5.513,0,1,1-5.513-5.513A5.512,5.512,0,0,1,333.2,212Z" transform="translate(-322.178 14.001)"/><path class="a" d="M342.4,212a5.513,5.513,0,1,1-5.513-5.513A5.512,5.512,0,0,1,342.4,212Z" transform="translate(-296.88 14.001)"/><path class="a" d="M351.6,212a5.513,5.513,0,1,1-5.513-5.513A5.512,5.512,0,0,1,351.6,212Z" transform="translate(-271.583 14.001)"/><path class="a" d="M360.8,212a5.513,5.513,0,1,1-5.513-5.513A5.512,5.512,0,0,1,360.8,212Z" transform="translate(-246.286 14.001)"/><path class="a" d="M324,184.4a5.511,5.511,0,1,1-5.513-5.513A5.515,5.515,0,0,1,324,184.4Z" transform="translate(-198.472 -178.891)"/><path class="a" d="M333.2,184.4a5.513,5.513,0,1,1-5.513-5.513A5.515,5.515,0,0,1,333.2,184.4Z" transform="translate(-173.178 -178.891)"/><path class="a" d="M342.4,184.4a5.513,5.513,0,1,1-5.513-5.513A5.515,5.515,0,0,1,342.4,184.4Z" transform="translate(-147.88 -178.891)"/><path class="a" d="M351.6,184.4a5.513,5.513,0,1,1-5.513-5.513A5.515,5.515,0,0,1,351.6,184.4Z" transform="translate(-122.583 -178.891)"/><path class="a" d="M324,193.6a5.511,5.511,0,1,1-5.513-5.513A5.515,5.515,0,0,1,324,193.6Z" transform="translate(-198.472 -153.594)"/><path class="a" d="M333.2,193.6a5.513,5.513,0,1,1-5.513-5.513A5.515,5.515,0,0,1,333.2,193.6Z" transform="translate(-173.178 -153.594)"/><path class="a" d="M342.4,193.6a5.513,5.513,0,1,1-5.513-5.513A5.515,5.515,0,0,1,342.4,193.6Z" transform="translate(-147.88 -153.594)"/><path class="a" d="M351.6,193.6a5.513,5.513,0,1,1-5.513-5.513A5.515,5.515,0,0,1,351.6,193.6Z" transform="translate(-122.583 -153.594)"/><path class="a" d="M324,202.8a5.511,5.511,0,1,1-5.513-5.513A5.512,5.512,0,0,1,324,202.8Z" transform="translate(-198.472 -128.297)"/><path class="a" d="M333.2,202.8a5.513,5.513,0,1,1-5.513-5.513A5.512,5.512,0,0,1,333.2,202.8Z" transform="translate(-173.178 -128.297)"/><path class="a" d="M342.4,202.8a5.513,5.513,0,1,1-5.513-5.513A5.512,5.512,0,0,1,342.4,202.8Z" transform="translate(-147.88 -128.297)"/><path class="a" d="M351.6,202.8a5.513,5.513,0,1,1-5.513-5.513A5.512,5.512,0,0,1,351.6,202.8Z" transform="translate(-122.583 -128.297)"/><path class="a" d="M324,212a5.511,5.511,0,1,1-5.513-5.513A5.512,5.512,0,0,1,324,212Z" transform="translate(-198.472 -102.999)"/><path class="a" d="M333.2,212a5.513,5.513,0,1,1-5.513-5.513A5.512,5.512,0,0,1,333.2,212Z" transform="translate(-173.178 -102.999)"/><path class="a" d="M342.4,212a5.513,5.513,0,1,1-5.513-5.513A5.512,5.512,0,0,1,342.4,212Z" transform="translate(-147.88 -102.999)"/><path class="a" d="M351.6,212a5.513,5.513,0,1,1-5.513-5.513A5.512,5.512,0,0,1,351.6,212Z" transform="translate(-122.583 -102.999)"/></svg>