<svg xmlns="http://www.w3.org/2000/svg" width="1002.064" height="1025.038" viewBox="0 0 1002.064 1025.038"><defs><style>.a{fill:rgba(0,0,0,0);stroke-width:1.593px;}.a,.b{stroke:#7ab9f3;}.a,.b,.c,.d,.f{stroke-miterlimit:10;}.b,.e,.f{fill:rgba(31,103,212,0);}.c,.d{fill:none;}.c,.f{stroke:#0085ff;}.c,.d,.f{stroke-linecap:round;stroke-width:2px;}.d{stroke:#1f93fe;}</style></defs><g transform="translate(0 1.414)"><g transform="translate(273.075 382.462)"><circle class="a" cx="219.316" cy="219.316" r="219.316" transform="translate(310.159 620.319) rotate(-135)"/><circle class="a" cx="204.081" cy="204.081" r="204.081" transform="translate(310.159 598.773) rotate(-135)"/><circle class="a" cx="188.846" cy="188.846" r="188.846" transform="translate(192.035 549.684) rotate(-108.749)"/><ellipse class="a" cx="173.611" cy="173.611" rx="173.611" ry="173.611" transform="matrix(-0.322, -0.947, 0.947, -0.322, 201.72, 530.438)"/><circle class="a" cx="158.376" cy="158.376" r="158.376" transform="translate(211.379 511.177) rotate(-108.83)"/><ellipse class="a" cx="143.141" cy="143.141" rx="143.141" ry="143.141" transform="translate(221.011 491.904) rotate(-108.871)"/><ellipse class="a" cx="127.906" cy="127.906" rx="127.906" ry="127.906" transform="translate(230.615 472.617) rotate(-108.912)"/><ellipse class="a" cx="112.671" cy="112.671" rx="112.671" ry="112.671" transform="translate(240.192 453.317) rotate(-108.953)"/><ellipse class="a" cx="97.436" cy="97.436" rx="97.436" ry="97.436" transform="translate(249.742 434.003) rotate(-108.995)"/><circle class="a" cx="82.201" cy="82.201" r="82.201" transform="translate(259.265 414.676) rotate(-109.036)"/><ellipse class="a" cx="66.966" cy="66.966" rx="66.966" ry="66.966" transform="matrix(-0.327, -0.945, 0.945, -0.327, 268.759, 395.335)"/><ellipse class="a" cx="51.731" cy="51.731" rx="51.731" ry="51.731" transform="translate(278.226 375.98) rotate(-109.119)"/><ellipse class="a" cx="36.496" cy="36.496" rx="36.496" ry="36.496" transform="translate(287.664 356.612) rotate(-109.161)"/><path class="a" d="M444.1,309.314a21.261,21.261,0,1,0,21.261-21.261A21.261,21.261,0,0,0,444.1,309.314Z" transform="translate(-155.204 0.846)"/></g><g transform="translate(791.481 55.511)"><circle class="b" cx="63.777" cy="63.777" r="63.777" transform="translate(90.195 180.389) rotate(-135)"/><circle class="b" cx="54.178" cy="54.178" r="54.178" transform="translate(90.195 166.814) rotate(-135)"/><circle class="b" cx="44.579" cy="44.579" r="44.579" transform="translate(91.841 153.217) rotate(-136.497)"/><ellipse class="b" cx="34.98" cy="34.98" rx="34.98" ry="34.98" transform="matrix(-0.739, -0.674, 0.674, -0.739, 92.466, 139.612)"/><ellipse class="b" cx="25.381" cy="25.381" rx="25.381" ry="25.381" transform="translate(92.548 126.011) rotate(-138.759)"/><path class="b" d="M308.661,137.652a15.781,15.781,0,1,0,15.781-15.781A15.78,15.78,0,0,0,308.661,137.652Z" transform="translate(-234.248 -47.458)"/><path class="b" d="M312.744,132.137a6.183,6.183,0,1,0,6.183-6.183A6.181,6.181,0,0,0,312.744,132.137Z" transform="translate(-228.732 -41.943)"/></g><g transform="translate(862.294 662.42)"><line class="c" x1="17.881" y2="17.881"/><line class="c" x2="17.881" y2="17.881"/></g><g transform="translate(184.205 953.722)"><line class="d" x1="14.118" y2="13.362" transform="translate(0 0.378)"/><line class="d" x2="13.362" y2="14.119" transform="translate(0.378)"/></g><g transform="translate(957.752)"><line class="c" x1="14.118" y2="13.362" transform="translate(0 0.378)"/><line class="c" x2="13.362" y2="14.118" transform="translate(0.378)"/></g><g transform="translate(881.609 340.374)"><path class="e" d="M312.982,183.348a4.456,4.456,0,1,0,4.457-4.457A4.459,4.459,0,0,0,312.982,183.348Z" transform="translate(-201.438 -178.891)"/><path class="e" d="M322.178,183.348a4.457,4.457,0,1,0,4.457-4.457A4.459,4.459,0,0,0,322.178,183.348Z" transform="translate(-238.52 -178.891)"/><path class="e" d="M331.375,183.348a4.457,4.457,0,1,0,4.457-4.457A4.459,4.459,0,0,0,331.375,183.348Z" transform="translate(-275.603 -178.891)"/><path class="e" d="M340.572,183.348a4.457,4.457,0,1,0,4.457-4.457A4.459,4.459,0,0,0,340.572,183.348Z" transform="translate(-312.686 -178.891)"/><path class="e" d="M349.769,183.348a4.457,4.457,0,1,0,4.457-4.457A4.459,4.459,0,0,0,349.769,183.348Z" transform="translate(-349.769 -178.891)"/><path class="e" d="M312.982,192.545a4.456,4.456,0,1,0,4.457-4.457A4.459,4.459,0,0,0,312.982,192.545Z" transform="translate(-201.438 -160.202)"/><path class="e" d="M322.178,192.545a4.457,4.457,0,1,0,4.457-4.457A4.459,4.459,0,0,0,322.178,192.545Z" transform="translate(-238.52 -160.202)"/><path class="e" d="M331.375,192.545a4.457,4.457,0,1,0,4.457-4.457A4.459,4.459,0,0,0,331.375,192.545Z" transform="translate(-275.603 -160.202)"/><path class="e" d="M340.572,192.545a4.457,4.457,0,1,0,4.457-4.457A4.459,4.459,0,0,0,340.572,192.545Z" transform="translate(-312.686 -160.202)"/><path class="e" d="M349.769,192.545a4.457,4.457,0,1,0,4.457-4.457A4.459,4.459,0,0,0,349.769,192.545Z" transform="translate(-349.769 -160.202)"/><path class="e" d="M312.982,201.742a4.456,4.456,0,1,0,4.457-4.457A4.456,4.456,0,0,0,312.982,201.742Z" transform="translate(-201.438 -141.513)"/><path class="e" d="M322.178,201.742a4.457,4.457,0,1,0,4.457-4.457A4.456,4.456,0,0,0,322.178,201.742Z" transform="translate(-238.52 -141.513)"/><path class="e" d="M331.375,201.742a4.457,4.457,0,1,0,4.457-4.457A4.456,4.456,0,0,0,331.375,201.742Z" transform="translate(-275.603 -141.513)"/><path class="e" d="M340.572,201.742a4.457,4.457,0,1,0,4.457-4.457A4.456,4.456,0,0,0,340.572,201.742Z" transform="translate(-312.686 -141.513)"/><path class="e" d="M349.769,201.742a4.457,4.457,0,1,0,4.457-4.457A4.456,4.456,0,0,0,349.769,201.742Z" transform="translate(-349.769 -141.513)"/><path class="e" d="M312.982,210.939a4.456,4.456,0,1,0,4.457-4.457A4.456,4.456,0,0,0,312.982,210.939Z" transform="translate(-201.438 -122.824)"/><path class="e" d="M322.178,210.939a4.457,4.457,0,1,0,4.457-4.457A4.456,4.456,0,0,0,322.178,210.939Z" transform="translate(-238.52 -122.824)"/><path class="e" d="M331.375,210.939a4.457,4.457,0,1,0,4.457-4.457A4.456,4.456,0,0,0,331.375,210.939Z" transform="translate(-275.603 -122.824)"/><path class="e" d="M340.572,210.939a4.457,4.457,0,1,0,4.457-4.457A4.456,4.456,0,0,0,340.572,210.939Z" transform="translate(-312.686 -122.824)"/><path class="e" d="M349.769,210.939a4.457,4.457,0,1,0,4.457-4.457A4.456,4.456,0,0,0,349.769,210.939Z" transform="translate(-349.769 -122.824)"/></g><g transform="translate(0 931.056)"><path class="e" d="M603.742,378.159A4.457,4.457,0,1,0,608.2,373.7,4.456,4.456,0,0,0,603.742,378.159Z" transform="translate(-492.198 -373.702)"/><path class="e" d="M612.939,378.159A4.457,4.457,0,1,0,617.4,373.7,4.456,4.456,0,0,0,612.939,378.159Z" transform="translate(-529.281 -373.702)"/><path class="e" d="M622.136,378.159a4.457,4.457,0,1,0,4.457-4.457A4.456,4.456,0,0,0,622.136,378.159Z" transform="translate(-566.364 -373.702)"/><path class="e" d="M631.333,378.159a4.457,4.457,0,1,0,4.457-4.457A4.456,4.456,0,0,0,631.333,378.159Z" transform="translate(-603.447 -373.702)"/><path class="e" d="M640.53,378.159a4.457,4.457,0,1,0,4.457-4.457A4.456,4.456,0,0,0,640.53,378.159Z" transform="translate(-640.53 -373.702)"/><path class="e" d="M603.742,387.353A4.457,4.457,0,1,0,608.2,382.9,4.457,4.457,0,0,0,603.742,387.353Z" transform="translate(-492.198 -355.013)"/><path class="e" d="M612.939,387.353A4.457,4.457,0,1,0,617.4,382.9,4.457,4.457,0,0,0,612.939,387.353Z" transform="translate(-529.281 -355.013)"/><path class="e" d="M622.136,387.353a4.457,4.457,0,1,0,4.457-4.454A4.457,4.457,0,0,0,622.136,387.353Z" transform="translate(-566.364 -355.013)"/><path class="e" d="M631.333,387.353a4.457,4.457,0,1,0,4.457-4.454A4.457,4.457,0,0,0,631.333,387.353Z" transform="translate(-603.447 -355.013)"/><path class="e" d="M640.53,387.353a4.457,4.457,0,1,0,4.457-4.454A4.457,4.457,0,0,0,640.53,387.353Z" transform="translate(-640.53 -355.013)"/><path class="e" d="M603.742,396.55A4.457,4.457,0,1,0,608.2,392.1,4.457,4.457,0,0,0,603.742,396.55Z" transform="translate(-492.198 -336.324)"/><path class="e" d="M612.939,396.55A4.457,4.457,0,1,0,617.4,392.1,4.457,4.457,0,0,0,612.939,396.55Z" transform="translate(-529.281 -336.324)"/><path class="e" d="M622.136,396.55a4.457,4.457,0,1,0,4.457-4.454A4.457,4.457,0,0,0,622.136,396.55Z" transform="translate(-566.364 -336.324)"/><path class="e" d="M631.333,396.55a4.457,4.457,0,1,0,4.457-4.454A4.457,4.457,0,0,0,631.333,396.55Z" transform="translate(-603.447 -336.324)"/><path class="e" d="M640.53,396.55a4.457,4.457,0,1,0,4.457-4.454A4.457,4.457,0,0,0,640.53,396.55Z" transform="translate(-640.53 -336.324)"/><path class="e" d="M603.742,405.749a4.457,4.457,0,1,0,4.457-4.457A4.457,4.457,0,0,0,603.742,405.749Z" transform="translate(-492.198 -317.637)"/><path class="e" d="M612.939,405.749a4.457,4.457,0,1,0,4.457-4.457A4.457,4.457,0,0,0,612.939,405.749Z" transform="translate(-529.281 -317.637)"/><path class="e" d="M622.136,405.749a4.457,4.457,0,1,0,4.457-4.457A4.457,4.457,0,0,0,622.136,405.749Z" transform="translate(-566.364 -317.637)"/><path class="e" d="M631.333,405.749a4.457,4.457,0,1,0,4.457-4.457A4.457,4.457,0,0,0,631.333,405.749Z" transform="translate(-603.447 -317.637)"/><path class="e" d="M640.53,405.749a4.457,4.457,0,1,0,4.457-4.457A4.457,4.457,0,0,0,640.53,405.749Z" transform="translate(-640.53 -317.637)"/></g><path class="c" d="M347.594,243.651A11.052,11.052,0,1,0,358.646,232.6,11.053,11.053,0,0,0,347.594,243.651Z" transform="translate(527.42 270.622)"/><rect class="f" width="20.906" height="20.906" rx="0.775" transform="matrix(-0.707, -0.707, 0.707, -0.707, 454.224, 985.388)"/></g></svg>