<svg xmlns="http://www.w3.org/2000/svg" xmlns:xlink="http://www.w3.org/1999/xlink" width="49" height="25" viewBox="0 0 49 25"><defs><style>.a{fill:#fff;}.b{clip-path:url(#a);}</style><clipPath id="a"><rect class="a" width="49" height="25" transform="translate(0 -0.383)"/></clipPath></defs><g transform="translate(36.802 111.617) rotate(180)"><g class="b" transform="translate(-12.199 87)"><path class="a" d="M34.944,96.923H-5.47L1.224,90.26a1.908,1.908,0,0,0,.006-2.7,1.909,1.909,0,0,0-2.7-.007l-9.971,9.923,0,0a1.91,1.91,0,0,0,0,2.7l0,0,9.971,9.923a1.909,1.909,0,0,0,2.7-.007,1.909,1.909,0,0,0-.006-2.7l-6.694-6.662H34.944a1.908,1.908,0,0,0,0-3.817Zm0,0" transform="translate(12.382 -86.999)"/></g></g></svg>