<svg xmlns="http://www.w3.org/2000/svg" width="174.107" height="176" viewBox="0 0 174.107 176"><defs><style>.a{opacity:0.5;}.b{fill:#1670c3;}</style></defs><g class="a" transform="translate(-1675.49 -17)"><path class="b" d="M322.178,183.082a4.191,4.191,0,1,0,4.191-4.191A4.193,4.193,0,0,0,322.178,183.082Z" transform="translate(1519.036 -72.943)"/><path class="b" d="M331.375,183.082a4.191,4.191,0,1,0,4.192-4.191A4.193,4.193,0,0,0,331.375,183.082Z" transform="translate(1483.615 -72.943)"/><path class="b" d="M340.572,183.082a4.191,4.191,0,1,0,4.192-4.191A4.193,4.193,0,0,0,340.572,183.082Z" transform="translate(1448.194 -72.943)"/><path class="b" d="M349.769,191.072a12.182,12.182,0,1,0,12.182-12.181A12.185,12.185,0,0,0,349.769,191.072Z" transform="translate(1400.964 -86.272)"/><path class="b" d="M322.178,192.28a4.191,4.191,0,1,0,4.191-4.191A4.193,4.193,0,0,0,322.178,192.28Z" transform="translate(1519.036 -55.916)"/><path class="b" d="M331.375,192.28a4.191,4.191,0,1,0,4.192-4.191A4.193,4.193,0,0,0,331.375,192.28Z" transform="translate(1483.615 -55.916)"/><path class="b" d="M340.572,192.28a4.191,4.191,0,1,0,4.192-4.191A4.193,4.193,0,0,0,340.572,192.28Z" transform="translate(1448.194 -55.916)"/><path class="b" d="M349.769,192.28a4.191,4.191,0,1,0,4.191-4.191A4.193,4.193,0,0,0,349.769,192.28Z" transform="translate(1412.774 -55.916)"/><path class="b" d="M322.178,201.477a4.191,4.191,0,1,0,4.191-4.191A4.19,4.19,0,0,0,322.178,201.477Z" transform="translate(1519.036 -38.889)"/><path class="b" d="M331.375,201.477a4.191,4.191,0,1,0,4.192-4.191A4.19,4.19,0,0,0,331.375,201.477Z" transform="translate(1483.615 -38.889)"/><path class="b" d="M340.572,201.477a4.191,4.191,0,1,0,4.192-4.191A4.19,4.19,0,0,0,340.572,201.477Z" transform="translate(1448.194 -38.889)"/><path class="b" d="M349.769,201.477a4.191,4.191,0,1,0,4.191-4.191A4.19,4.19,0,0,0,349.769,201.477Z" transform="translate(1412.774 -38.889)"/><path class="b" d="M322.178,210.673a4.191,4.191,0,1,0,4.191-4.191A4.19,4.19,0,0,0,322.178,210.673Z" transform="translate(1519.036 -21.862)"/><path class="b" d="M331.375,210.673a4.191,4.191,0,1,0,4.192-4.191A4.19,4.19,0,0,0,331.375,210.673Z" transform="translate(1483.615 -21.862)"/><path class="b" d="M340.572,210.673a4.191,4.191,0,1,0,4.192-4.191A4.19,4.19,0,0,0,340.572,210.673Z" transform="translate(1448.194 -21.862)"/><path class="b" d="M349.769,210.673a4.191,4.191,0,1,0,4.191-4.191A4.19,4.19,0,0,0,349.769,210.673Z" transform="translate(1412.774 -21.862)"/><path class="b" d="M312.982,183.082a4.19,4.19,0,1,0,4.192-4.191A4.193,4.193,0,0,0,312.982,183.082Z" transform="translate(1441.18 -161.891)"/><path class="b" d="M322.178,183.082a4.191,4.191,0,1,0,4.191-4.191A4.193,4.193,0,0,0,322.178,183.082Z" transform="translate(1405.76 -161.891)"/><path class="b" d="M331.375,183.082a4.191,4.191,0,1,0,4.192-4.191A4.193,4.193,0,0,0,331.375,183.082Z" transform="translate(1370.339 -161.891)"/><path class="b" d="M340.572,183.082a4.191,4.191,0,1,0,4.192-4.191A4.193,4.193,0,0,0,340.572,183.082Z" transform="translate(1334.918 -161.891)"/><path class="b" d="M312.982,192.28a4.19,4.19,0,1,0,4.192-4.191A4.193,4.193,0,0,0,312.982,192.28Z" transform="translate(1441.18 -144.864)"/><path class="b" d="M322.178,192.28a4.191,4.191,0,1,0,4.191-4.191A4.193,4.193,0,0,0,322.178,192.28Z" transform="translate(1405.76 -144.864)"/><path class="b" d="M331.375,192.28a4.191,4.191,0,1,0,4.192-4.191A4.193,4.193,0,0,0,331.375,192.28Z" transform="translate(1370.339 -144.864)"/><path class="b" d="M340.572,192.28a4.191,4.191,0,1,0,4.192-4.191A4.193,4.193,0,0,0,340.572,192.28Z" transform="translate(1334.918 -144.864)"/><path class="b" d="M312.982,201.477a4.19,4.19,0,1,0,4.192-4.191A4.19,4.19,0,0,0,312.982,201.477Z" transform="translate(1441.18 -127.837)"/><path class="b" d="M322.178,201.477a4.191,4.191,0,1,0,4.191-4.191A4.19,4.19,0,0,0,322.178,201.477Z" transform="translate(1405.76 -127.837)"/><path class="b" d="M331.375,201.477a4.191,4.191,0,1,0,4.192-4.191A4.19,4.19,0,0,0,331.375,201.477Z" transform="translate(1370.339 -127.837)"/><path class="b" d="M340.572,201.477a4.191,4.191,0,1,0,4.192-4.191A4.19,4.19,0,0,0,340.572,201.477Z" transform="translate(1334.918 -127.837)"/><path class="b" d="M322.178,210.673a4.191,4.191,0,1,0,4.191-4.191A4.19,4.19,0,0,0,322.178,210.673Z" transform="translate(1405.76 -110.81)"/><path class="b" d="M331.375,210.673a4.191,4.191,0,1,0,4.192-4.191A4.19,4.19,0,0,0,331.375,210.673Z" transform="translate(1370.339 -110.81)"/><path class="b" d="M340.572,210.673a4.191,4.191,0,1,0,4.192-4.191A4.19,4.19,0,0,0,340.572,210.673Z" transform="translate(1334.918 -110.81)"/></g></svg>