<svg xmlns="http://www.w3.org/2000/svg" width="55.233" height="56.5" viewBox="0 0 55.233 56.5"><defs><style>.a{fill:#0d4f8c;isolation:isolate;}</style></defs><path class="a" d="M1311.505-278.776q-8.192-8.207-16.372-16.425c-.644-.65-1.045-.2-1.54.112a21.521,21.521,0,0,1-18.033,2.6,21.887,21.887,0,0,1-15.609-23.021c.7-9.493,8.5-17.957,18.242-19.485a21.787,21.787,0,0,1,25.2,18.686,21.37,21.37,0,0,1-4.126,15.926q-.381.517-.754,1.04a.915.915,0,0,0-.052.216l16.651,16.744v.258l-3.353,3.353Zm-29.792-15.214a19.548,19.548,0,0,0,19.478-19.566,19.574,19.574,0,0,0-19.431-19.35,19.537,19.537,0,0,0-19.48,19.564A19.585,19.585,0,0,0,1281.714-293.99Z" transform="translate(-1259.883 335.276)"/></svg>